<svg width="20" height="20" viewBox="0 0 20 20" fill="none" xmlns="http://www.w3.org/2000/svg">
<path d="M16.5049 9.5C15.3449 9.5 14.4949 10.3 14.1649 11.43C13.8449 11.16 13.4549 11 13.0049 11C11.8449 11 11.0549 12.06 11.0149 13.38C10.3749 13.58 9.73488 13.81 9.11488 14.08C8.42488 14.38 7.71488 14.61 7.00488 14.81V13.45C9.44488 13.23 11.0049 12.15 11.0049 9.5C11.0049 8.5 11.0049 2.5 6.00488 2.5C1.00488 2.5 1.00488 7.5 1.00488 9.5C1.00488 12.15 2.56488 13.24 5.00488 13.45V15.25C4.08488 15.4 3.14488 15.5 2.19488 15.5H1.00488V17.5H2.19488C4.85488 17.5 7.44488 16.97 9.89488 15.92C12.0949 14.98 14.4249 14.5 16.8049 14.5H18.9949V12.5C18.9949 10.84 17.9949 9.5 16.4949 9.5H16.5049ZM3.00488 9.5C3.00488 5.32 4.10488 4.5 6.00488 4.5C7.37488 4.5 9.00488 5.37 9.00488 9.5C9.00488 10.32 9.00488 11.23 7.00488 11.45V8.5H5.00488V11.45C3.00488 11.23 3.00488 10.32 3.00488 9.5Z" fill="white"/>
</svg>
