<svg width="20" height="20" viewBox="0 0 20 20" fill="none" xmlns="http://www.w3.org/2000/svg">
<g clip-path="url(#clip0_9095_7344)">
<path d="M7.5 5.58V12.5H14.42C13.94 15.33 11.47 17.5 8.5 17.5C5.19 17.5 2.5 14.81 2.5 11.5C2.5 8.53 4.67 6.06 7.5 5.58ZM9.5 3.5H8.5C4.08 3.5 0.5 7.08 0.5 11.5C0.5 15.92 4.08 19.5 8.5 19.5C12.92 19.5 16.5 15.92 16.5 11.5V10.5H9.5V3.5Z" fill="white"/>
<path fill-rule="evenodd" clip-rule="evenodd" d="M11.5 0.5C15.92 0.5 19.5 4.08 19.5 8.5H11.5V0.5Z" fill="white"/>
</g>
<defs>
<clipPath id="clip0_9095_7344">
<rect width="20" height="20" fill="white"/>
</clipPath>
</defs>
</svg>
