<svg width="20" height="20" viewBox="0 0 20 20" fill="none" xmlns="http://www.w3.org/2000/svg">
<path fill-rule="evenodd" clip-rule="evenodd" d="M6.00001 6C6.00001 3.8 7.80001 2 10 2C12.2 2 14 3.8 14 6C14 8.2 12.2 10 10 10C7.80001 10 6.00001 8.2 6.00001 6ZM12 6C12 4.9 11.1 4 10 4C8.90001 4 8 4.9 8 6C8 7.1 8.90001 8 10 8C11.1 8 12 7.1 12 6Z" fill="#100101"/>
<path fill-rule="evenodd" clip-rule="evenodd" d="M3 17.9998C3 13.9998 5 10.9998 10 10.9998C15 10.9998 17 13.9998 17 17.9998H3ZM14.8 15.9998C14.2 13.9998 12.7 12.9998 10 12.9998C7.3 12.9998 5.8 13.9998 5.2 15.9998H14.8Z" fill="#100101"/>
</svg>
