<svg width="20" height="20" viewBox="0 0 20 20" fill="none" xmlns="http://www.w3.org/2000/svg">
<path d="M10 15.3999C10.6628 15.3999 11.2 14.8627 11.2 14.1999C11.2 13.5372 10.6628 12.9999 10 12.9999C9.33728 12.9999 8.80002 13.5372 8.80002 14.1999C8.80002 14.8627 9.33728 15.3999 10 15.3999Z" fill="white"/>
<path d="M11 12V11.5C11 11.1339 11.268 10.9019 11.6077 10.6077C12.1962 10.098 13 9.40188 13 7.49996C13 5.49996 12 4.49996 10 4.49996C8.00002 4.49996 7.00002 5.49996 7.00002 7.49996V8.49996H9.00002V6.49996H11V8.49996C11 8.91417 10.6569 9.15681 10.2549 9.44108C9.68631 9.84311 9.00002 10.3284 9.00002 11.5V12H11Z" fill="white"/>
<path fill-rule="evenodd" clip-rule="evenodd" d="M10 1C5 1 1 5 1 10C1 15 5 19 10 19C15 19 19 15 19 10C19 5 15 1 10 1ZM10 3C13.9 3 17 6.1 17 10C17 13.9 13.9 17 10 17C6.1 17 3 13.9 3 10C3 6.1 6.1 3 10 3Z" fill="white"/>
</svg>
