<svg width="20" height="20" viewBox="0 0 20 20" fill="none" xmlns="http://www.w3.org/2000/svg">
<g clip-path="url(#clip0_9095_6407)">
<path d="M11.5 1.5C11.5 2.32843 10.8284 3 10 3C9.17157 3 8.5 2.32843 8.5 1.5C8.5 0.671573 9.17157 0 10 0C10.8284 0 11.5 0.671573 11.5 1.5Z" fill="#100101"/>
<path d="M11 15V10H13V7C13 6 13 4 10 4C7 4 7 6 7 7V10H9V15H11Z" fill="#100101"/>
<path d="M13 11.3301V13.4101C14.9 13.9501 16 14.9001 16 15.5001C16 16.3801 13.72 18.0001 10 18.0001C6.28 18.0001 4 16.3801 4 15.5001C4 14.8901 5.1 13.9401 7 13.4101V11.3301C4.07 12.0001 2 13.6101 2 15.5001C2 17.9901 5.58 20.0001 10 20.0001C14.42 20.0001 18 17.9901 18 15.5001C18 13.6101 15.93 12.0001 13 11.3301Z" fill="#100101"/>
</g>
<defs>
<clipPath id="clip0_9095_6407">
<rect width="20" height="20" fill="white"/>
</clipPath>
</defs>
</svg>
