<svg width="20" height="20" viewBox="0 0 20 20" fill="none" xmlns="http://www.w3.org/2000/svg">
<path d="M8 11C8 10.4477 7.55228 10 7 10C6.44772 10 6 10.4477 6 11C6 11.5523 6.44772 12 7 12C7.55228 12 8 11.5523 8 11Z" fill="white"/>
<path d="M14 11C14 10.4477 13.5523 10 13 10C12.4477 10 12 10.4477 12 11C12 11.5523 12.4477 12 13 12C13.5523 12 14 11.5523 14 11Z" fill="white"/>
<path d="M9 4V16H19V4H9ZM17 14H11V6H17V14Z" fill="white"/>
<path d="M11 16V4H1V16H11ZM3 6H9V14H3V6Z" fill="white"/>
</svg>
