<svg width="20" height="20" viewBox="0 0 20 20" fill="none" xmlns="http://www.w3.org/2000/svg">
<g clip-path="url(#clip0_9095_7406)">
<path fill-rule="evenodd" clip-rule="evenodd" d="M3 2H8C8.55 2 9 2.45 9 3V17C9 17.55 8.55 18 8 18H3C2.45 18 2 17.55 2 17V3C2 2.45 2.45 2 3 2ZM0 3C0 1.34 1.34 0 3 0H8C9.66 0 11 1.34 11 3V17C11 18.66 9.66 20 8 20H3C1.34 20 0 18.66 0 17V3Z" fill="white"/>
<path fill-rule="evenodd" clip-rule="evenodd" d="M17 9H12V11H17C17.55 11 18 11.45 18 12V17C18 17.55 17.55 18 17 18H12V20H17C18.66 20 20 18.66 20 17V12C20 10.34 18.66 9 17 9Z" fill="#4C4C4C"/>
<path d="M17 5C17 2 17 1 13 1V3C15 3 15 3 15 5H13L16 8L19 5H17Z" fill="white"/>
</g>
<defs>
<clipPath id="clip0_9095_7406">
<rect width="20" height="20" fill="white"/>
</clipPath>
</defs>
</svg>
