<svg width="20" height="20" viewBox="0 0 20 20" fill="none" xmlns="http://www.w3.org/2000/svg">
<path d="M11.0001 6.99981H13.0001C14.7001 6.99981 16.0001 8.29981 16.0001 9.99981C16.0001 11.6998 14.7001 12.9998 13.0001 12.9998H11.0001V14.9998H13.0001C15.8001 14.9998 18.0001 12.7998 18.0001 9.99981C18.0001 7.19981 15.8001 4.99981 13.0001 4.99981H11.0001" fill="white"/>
<path d="M9 12.9998H7C5.3 12.9998 4 11.6998 4 9.99976C4 8.29976 5.3 6.99976 7 6.99976H9V4.99976H7C4.2 4.99976 2 7.19976 2 9.99976C2 12.7998 4.2 14.9998 7 14.9998H9" fill="white"/>
<path d="M13.0001 11.0001V9.00005H7.00014V11.0001H13.0001Z" fill="white"/>
</svg>
