<svg width="20" height="20" viewBox="0 0 20 20" fill="none" xmlns="http://www.w3.org/2000/svg">
<g clip-path="url(#clip0_9095_6391)">
<path d="M14.0001 10.0002L10.5001 8.00016L7.00012 6.00016V14.0002L14.0001 10.0002Z" fill="#100101"/>
<path fill-rule="evenodd" clip-rule="evenodd" d="M0 10C0 4.48 4.48 0 10 0C15.52 0 20 4.48 20 10C20 15.52 15.52 20 10 20C4.48 20 0 15.52 0 10ZM18 10C18 5.59 14.41 2 10 2C5.59 2 2 5.59 2 10C2 14.41 5.59 18 10 18C14.41 18 18 14.41 18 10Z" fill="#100101"/>
</g>
<defs>
<clipPath id="clip0_9095_6391">
<rect width="20" height="20" fill="white"/>
</clipPath>
</defs>
</svg>
