<svg width="20" height="20" viewBox="0 0 20 20" fill="none" xmlns="http://www.w3.org/2000/svg">
<g clip-path="url(#clip0_9095_7371)">
<path fill-rule="evenodd" clip-rule="evenodd" d="M6 2.5C4.07 2.5 2.5 4.07 2.5 6C2.5 7.93 4.07 9.5 6 9.5C7.93 9.5 9.5 7.93 9.5 6C9.5 4.07 7.93 2.5 6 2.5ZM6 4.5C6.83 4.5 7.5 5.17 7.5 6C7.5 6.83 6.83 7.5 6 7.5C5.17 7.5 4.5 6.83 4.5 6C4.5 5.17 5.17 4.5 6 4.5Z" fill="white"/>
<path d="M20.0001 8.49988H17.0001V5.49988H15.0001V8.49988H12.0001V10.4999H15.0001V13.4999H17.0001V10.4999H20.0001V8.49988Z" fill="white"/>
<path fill-rule="evenodd" clip-rule="evenodd" d="M0 17.4999C0 13.4999 1.71 10.4999 6 10.4999C10.29 10.4999 12 13.4999 12 17.4999H0ZM9.8 15.4999C9.13 12.4999 6.92 12.4999 6 12.4999C5.08 12.4999 2.87 12.4999 2.2 15.4999H9.8Z" fill="white"/>
</g>
<defs>
<clipPath id="clip0_9095_7371">
<rect width="20" height="20" fill="white"/>
</clipPath>
</defs>
</svg>
