<svg width="20" height="20" viewBox="0 0 20 20" fill="none" xmlns="http://www.w3.org/2000/svg">
<g clip-path="url(#clip0_9095_6445)">
<path d="M0 16.0002H16V0.000244141H0V16.0002ZM2 2.00024H14V14.0002H2V2.00024Z" fill="#100101"/>
<path d="M20 18.0002H18V20.0002H20V18.0002Z" fill="#100101"/>
<path d="M20 14.0002H18V16.0002H20V14.0002Z" fill="#100101"/>
<path d="M20 10.0002H18V12.0002H20V10.0002Z" fill="#100101"/>
<path d="M20 6.00024H18V8.00024H20V6.00024Z" fill="#100101"/>
<path d="M12 6.00024H10V8.00024H12V6.00024Z" fill="#100101"/>
<path d="M8 10.0002H6V12.0002H8V10.0002Z" fill="#100101"/>
<path d="M8 6.00024H6V8.00024H8V6.00024Z" fill="#100101"/>
<path d="M12 10.0002H10V12.0002H12V10.0002Z" fill="#100101"/>
<path d="M16 18.0002H14V20.0002H16V18.0002Z" fill="#100101"/>
<path d="M12 18.0002H10V20.0002H12V18.0002Z" fill="#100101"/>
<path d="M8 18.0002H6V20.0002H8V18.0002Z" fill="#100101"/>
</g>
<defs>
<clipPath id="clip0_9095_6445">
<rect width="20" height="20" fill="white" transform="translate(0 0.000244141)"/>
</clipPath>
</defs>
</svg>
