<svg width="20" height="20" viewBox="0 0 20 20" fill="none" xmlns="http://www.w3.org/2000/svg">
<g clip-path="url(#clip0_9095_7304)">
<path d="M7.99023 11C8.54252 11 8.99023 10.5523 8.99023 10C8.99023 9.44771 8.54252 9 7.99023 9C7.43795 9 6.99023 9.44771 6.99023 10C6.99023 10.5523 7.43795 11 7.99023 11Z" fill="white"/>
<path d="M9.99023 15C11.0902 15 11.9902 14 11.9902 12H7.99023C7.99023 14 8.89023 15 9.99023 15Z" fill="white"/>
<path d="M11.9902 11C12.5425 11 12.9902 10.5523 12.9902 10C12.9902 9.44771 12.5425 9 11.9902 9C11.4379 9 10.9902 9.44771 10.9902 10C10.9902 10.5523 11.4379 11 11.9902 11Z" fill="white"/>
<path d="M18.0902 9.07C17.2602 7.56 14.7502 3 9.99023 3C9.87023 3 9.79023 2.99 9.74023 2.98C9.71023 2.77 9.80023 2.29 9.86023 2.02C9.92023 1.68 9.99023 1.33 9.99023 1H7.99023C7.99023 1.14 7.94023 1.4 7.89023 1.65C7.74023 2.43 7.54023 3.49 8.19023 4.28C8.59023 4.76 9.19023 5 9.99023 5C13.5702 5 15.6502 8.79 16.3402 10.04C16.6202 10.56 16.8702 11 17.4902 11C17.7702 11 17.9902 11.22 17.9902 11.5C17.9902 11.78 17.7702 12 17.4902 12C16.9102 12 16.6502 12.38 16.2902 12.91C15.4602 14.14 13.5102 17 9.99023 17C6.47023 17 4.52023 14.13 3.69023 12.91C3.33023 12.38 3.07023 12 2.49023 12C2.21023 12 1.99023 11.78 1.99023 11.5C1.99023 11.22 2.21023 11 2.49023 11C3.16023 11 3.39023 10.52 3.70023 9.91C4.15023 9.01 5.07023 7.14 6.58023 6.06L5.41023 4.44C3.50023 5.81 2.43023 7.98 1.91023 9.02C1.91023 9.04 1.89023 9.06 1.88023 9.08C0.800234 9.35 -0.00976562 10.34 -0.00976562 11.5C-0.00976562 12.66 0.840234 13.71 1.98023 13.95C2.00023 13.98 2.02023 14 2.04023 14.03C2.96023 15.39 5.41023 19 10.0002 19C14.5902 19 17.0402 15.39 17.9602 14.03C17.9802 14 18.0002 13.97 18.0202 13.95C19.1502 13.71 20.0102 12.7 20.0102 11.5C20.0102 10.3 19.2002 9.34 18.1102 9.07H18.0902Z" fill="white"/>
</g>
<defs>
<clipPath id="clip0_9095_7304">
<rect width="20" height="20" fill="white"/>
</clipPath>
</defs>
</svg>
