<svg width="20" height="20" viewBox="0 0 20 20" fill="none" xmlns="http://www.w3.org/2000/svg">
<path fill-rule="evenodd" clip-rule="evenodd" d="M13 1.00024H7V3.00024H13V1.00024ZM3 12.0002C3 8.10024 6.1 5.00024 10 5.00024C13.9 5.00024 17 8.10024 17 12.0002C17 15.9002 13.9 19.0002 10 19.0002C6.1 19.0002 3 15.9002 3 12.0002ZM10 7.00024C7.2 7.00024 5 9.20024 5 12.0002C5 14.8002 7.2 17.0002 10 17.0002C12.8 17.0002 15 14.8002 15 12.0002C15 9.20024 12.8 7.00024 10 7.00024ZM9 13.0002V9.00024H11V13.0002H9Z" fill="white"/>
</svg>
