<svg width="20" height="20" viewBox="0 0 20 20" fill="none" xmlns="http://www.w3.org/2000/svg">
<path d="M7.99989 8.00037H11.9999V12.0004H7.99989V8.00037Z" fill="#100101"/>
<path fill-rule="evenodd" clip-rule="evenodd" d="M15.9 7.50024C16.2 8.20024 16.8 8.70024 17.6 8.70024H19V11.3002H17.6C16.8 11.3002 16.2 11.8002 15.9 12.5002C15.6 13.2002 15.8 14.0002 16.3 14.5002L17.3 15.5002L15.5 17.3002L14.5 16.3002C14 15.8002 13.2 15.6002 12.5 15.9002C11.8 16.2002 11.3 16.8002 11.3 17.6002V19.0002H8.7V17.6002C8.7 16.8002 8.2 16.2002 7.5 15.9002C6.8 15.6002 6 15.8002 5.5 16.3002L4.5 17.3002L2.7 15.5002L3.7 14.5002C4.2 14.0002 4.4 13.2002 4.1 12.5002C3.8 11.8002 3.2 11.3002 2.4 11.3002H1V8.70024H2.4C3.2 8.70024 3.8 8.20024 4.1 7.50024C4.4 6.80024 4.2 6.00024 3.7 5.50024L2.7 4.50024L4.5 2.70024L5.5 3.70024C6 4.20024 6.8 4.40024 7.5 4.10024C8.2 3.80024 8.7 3.20024 8.7 2.40024V1.00024H11.3V2.40024C11.3 3.20024 11.8 3.80024 12.5 4.10024C13.2 4.40024 14 4.20024 14.5 3.70024L15.5 2.70024L17.3 4.50024L16.3 5.50024C15.8 6.00024 15.6 6.80024 15.9 7.50024ZM5.5 10.0002C5.5 12.5002 7.5 14.5002 10 14.5002C12.5 14.5002 14.5 12.5002 14.5 10.0002C14.5 7.50024 12.5 5.50024 10 5.50024C7.5 5.50024 5.5 7.50024 5.5 10.0002Z" fill="#100101"/>
</svg>
