<svg width="20" height="20" viewBox="0 0 20 20" fill="none" xmlns="http://www.w3.org/2000/svg">
<path d="M15.5 7.00488C16.8807 7.00488 18 5.88559 18 4.50488C18 3.12417 16.8807 2.00488 15.5 2.00488C14.1193 2.00488 13 3.12417 13 4.50488C13 5.88559 14.1193 7.00488 15.5 7.00488Z" fill="white"/>
<path d="M7.98 15.0849V11.0049H11.97C11.97 11.0049 11.97 5.00488 6.98 5.00488C1.99 5.00488 2 11.0049 2 11.0049H5.99V15.6849C5.58 15.7749 4.76 15.8449 3.97 15.8949C2.86 15.9649 2 16.8849 2 17.9949H17.96L18 11.9949C13 11.9949 11.27 13.5349 9.1 14.5949C8.73 14.7749 8.36 14.9249 7.98 15.0749V15.0849ZM4.34 9.00488C4.7 8.00488 5.45 7.00488 6.99 7.00488C8.53 7.00488 9.27 7.99488 9.63 9.00488H4.34Z" fill="white"/>
</svg>
