<svg width="20" height="20" viewBox="0 0 20 20" fill="none" xmlns="http://www.w3.org/2000/svg">
<path d="M13 9.9998C13 11.6567 11.6569 12.9998 10 12.9998C8.34316 12.9998 7.00001 11.6567 7.00001 9.9998C7.00001 8.34294 8.34316 6.9998 10 6.9998C11.6569 6.9998 13 8.34294 13 9.9998Z" fill="white"/>
<path fill-rule="evenodd" clip-rule="evenodd" d="M1 9.99976C1 5.29976 5.5 2.99976 10 2.99976C14.5 2.99976 19 5.29976 19 9.99976C19 14.6998 14.5 16.9998 10 16.9998C5.5 16.9998 1 14.6998 1 9.99976ZM3 9.99976C3 13.3998 6.6 14.9998 10 14.9998C13.4 14.9998 17 13.3998 17 9.99976C17 6.59976 13.4 4.99976 10 4.99976C6.6 4.99976 3 6.59976 3 9.99976Z" fill="white"/>
</svg>
