<svg width="20" height="20" viewBox="0 0 20 20" fill="none" xmlns="http://www.w3.org/2000/svg">
<path d="M10 6C11.1046 6 12 5.10457 12 4C12 2.89543 11.1046 2 10 2C8.89543 2 8 2.89543 8 4C8 5.10457 8.89543 6 10 6Z" fill="#100101"/>
<path d="M10 12C11.1046 12 12 11.1046 12 10C12 8.89543 11.1046 8 10 8C8.89543 8 8 8.89543 8 10C8 11.1046 8.89543 12 10 12Z" fill="#100101"/>
<path d="M16 12C17.1046 12 18 11.1046 18 10C18 8.89543 17.1046 8 16 8C14.8954 8 14 8.89543 14 10C14 11.1046 14.8954 12 16 12Z" fill="#100101"/>
<path d="M4 12C5.10457 12 6 11.1046 6 10C6 8.89543 5.10457 8 4 8C2.89543 8 2 8.89543 2 10C2 11.1046 2.89543 12 4 12Z" fill="#100101"/>
<path d="M10 18C11.1046 18 12 17.1046 12 16C12 14.8954 11.1046 14 10 14C8.89543 14 8 14.8954 8 16C8 17.1046 8.89543 18 10 18Z" fill="#100101"/>
</svg>
