<svg width="20" height="20" viewBox="0 0 20 20" fill="none" xmlns="http://www.w3.org/2000/svg">
<path d="M12.4998 6.99999C12.4998 8.3807 11.3805 9.49999 9.99981 9.49999C8.6191 9.49999 7.49981 8.3807 7.49981 6.99999C7.49981 5.61928 8.6191 4.49999 9.99981 4.49999C11.3805 4.49999 12.4998 5.61928 12.4998 6.99999Z" fill="#100101"/>
<path fill-rule="evenodd" clip-rule="evenodd" d="M3.5 6.8C3.5 3.3 6.4 0.5 10 0.5C13.6 0.5 16.5 3.29999 16.5 6.8C16.5 13.6 10 19.5 10 19.5C10 19.5 3.5 13.6 3.5 6.8ZM14.5 6.8C14.5 4.4 12.5 2.5 10 2.5C7.5 2.5 5.5 4.4 5.5 6.8C5.5 10.8 8.3 14.6 10 16.6C11.7 14.6 14.5 10.8 14.5 6.8Z" fill="#100101"/>
</svg>
