<svg width="20" height="20" viewBox="0 0 20 20" fill="none" xmlns="http://www.w3.org/2000/svg">
<path d="M10 1C5.03 1 1 5.03 1 10C1 14.97 5.03 19 10 19C14.97 19 19 14.97 19 10C19 5.03 14.97 1 10 1ZM16.92 9H13.98C13.92 6.97 13.67 5.16 13.17 3.77C15.15 4.78 16.59 6.71 16.92 9ZM10 17C8.9 17 8.14 14.63 8.02 11H11.98C11.86 14.63 11.1 17 10 17ZM8.02 9C8.14 5.37 8.9 3 10 3C11.1 3 11.86 5.37 11.98 9H8.02ZM6.83 3.77C6.32 5.16 6.08 6.97 6.02 9H3.08C3.41 6.71 4.84 4.78 6.83 3.77ZM3.08 11H6.02C6.08 13.03 6.33 14.84 6.83 16.23C4.85 15.22 3.41 13.29 3.08 11ZM13.17 16.23C13.68 14.84 13.92 13.03 13.98 11H16.92C16.59 13.29 15.16 15.22 13.17 16.23Z" fill="white"/>
</svg>
