<svg width="20" height="20" viewBox="0 0 20 20" fill="none" xmlns="http://www.w3.org/2000/svg">
<path d="M8 12C8.55228 12 9 11.5523 9 11C9 10.4477 8.55228 10 8 10C7.44772 10 7 10.4477 7 11C7 11.5523 7.44772 12 8 12Z" fill="white"/>
<path d="M12 12C12.5523 12 13 11.5523 13 11C13 10.4477 12.5523 10 12 10C11.4477 10 11 10.4477 11 11C11 11.5523 11.4477 12 12 12Z" fill="white"/>
<path d="M8 15C8.55228 15 9 14.5523 9 14C9 13.4477 8.55228 13 8 13C7.44772 13 7 13.4477 7 14C7 14.5523 7.44772 15 8 15Z" fill="white"/>
<path d="M12 15C12.5523 15 13 14.5523 13 14C13 13.4477 12.5523 13 12 13C11.4477 13 11 13.4477 11 14C11 14.5523 11.4477 15 12 15Z" fill="white"/>
<path d="M13 5H7V8H13V5Z" fill="white"/>
<path d="M15 3V17H5V3H15ZM15 1H5C3.9 1 3 1.9 3 3V17C3 18.1 3.9 19 5 19H15C16.1 19 17 18.1 17 17V3C17 1.9 16.1 1 15 1Z" fill="white"/>
</svg>
