<svg width="20" height="20" viewBox="0 0 20 20" fill="none" xmlns="http://www.w3.org/2000/svg">
<path fill-rule="evenodd" clip-rule="evenodd" d="M2.00391 9.00122C2.00391 5.13122 5.13391 2.00122 9.00391 2.00122C12.8739 2.00122 16.0039 5.13122 16.0039 9.00122C16.0039 10.5764 15.4853 12.0291 14.6094 13.1979L17.9965 16.5851L16.5823 17.9993L13.1944 14.6113C12.0266 15.4845 10.5763 16.0012 9.00391 16.0012C5.13391 16.0012 2.00391 12.8712 2.00391 9.00122ZM14.0039 9.00122C14.0039 6.24122 11.7639 4.00122 9.00391 4.00122C6.24391 4.00122 4.00391 6.24122 4.00391 9.00122C4.00391 11.7612 6.24391 14.0012 9.00391 14.0012C11.7639 14.0012 14.0039 11.7612 14.0039 9.00122Z" fill="#100101"/>
</svg>
