<svg width="20" height="20" viewBox="0 0 20 20" fill="none" xmlns="http://www.w3.org/2000/svg">
<path d="M11 1H8.99999V3H11V1Z" fill="white"/>
<path d="M11 17.0001H8.99999V19.0001H11V17.0001Z" fill="white"/>
<path d="M8 7.49994C8 6.84107 8.24423 6.53542 8.53092 6.34739C8.88115 6.1177 9.41021 5.99994 10 5.99994C10.5444 5.99994 11.0463 6.13881 11.3914 6.4159C11.6981 6.66219 12 7.11095 12 8.01994H14C14 6.59892 13.4919 5.53769 12.6436 4.85647C11.8337 4.20607 10.8356 3.99994 10 3.99994C9.20979 3.99994 8.23885 4.14718 7.43408 4.67499C6.56577 5.24446 6 6.18881 6 7.49994C6 8.17114 6.11087 8.76507 6.36133 9.27184C6.61836 9.79191 6.99497 10.164 7.43077 10.4202C8.19593 10.8699 9.14992 10.9484 9.83065 11.0044L9.91695 11.0115C10.7354 11.0797 11.2329 11.1395 11.5615 11.3298C11.6882 11.4031 11.7784 11.4926 11.8477 11.6314C11.9237 11.7834 12 12.0471 12 12.4999C12 13.185 11.7511 13.4849 11.4742 13.6642C11.128 13.8882 10.6013 13.9999 10 13.9999C9.43301 13.9999 8.93322 13.871 8.59609 13.6091C8.30421 13.3823 8 12.9533 8 12.0199H6C6 13.4565 6.50579 14.5176 7.36891 15.1883C8.18678 15.8238 9.18699 15.9999 10 15.9999C10.7787 15.9999 11.752 15.8667 12.5608 15.3432C13.4389 14.7749 14 13.8249 14 12.4999C14 11.8327 13.8888 11.2415 13.6367 10.7371C13.3779 10.2194 12.9993 9.85116 12.5635 9.59887C11.8045 9.15947 10.8582 9.08195 10.1811 9.02647L10.083 9.01839C9.26764 8.95044 8.77115 8.88812 8.44423 8.69596C8.31753 8.62149 8.22539 8.52954 8.1543 8.38569C8.07664 8.22856 8 7.95874 8 7.49994Z" fill="white"/>
</svg>
