<svg width="20" height="20" viewBox="0 0 20 20" fill="none" xmlns="http://www.w3.org/2000/svg">
<path d="M14 3.96319C15.98 3.96319 17 5.23926 17 6.90798C17 11.816 10 15.7423 10 15.7423C10 15.7423 3 11.816 3 6.90798C3 5.23926 4.02 3.96319 6 3.96319C9 3.96319 10 7.88957 10 7.88957C10 7.88957 11 3.96319 14 3.96319ZM14 2C12.28 2 10.96 2.77546 10 3.80614C9.04 2.77546 7.72 2 6 2C3.06 2 1 4.02209 1 6.90798C1 9.5092 2.39 12.1006 5.14 14.6037C7.04 16.3313 10 18 10 18C10 18 12.96 16.3313 14.86 14.6037C17.61 12.1006 19 9.5092 19 6.90798C19 4.02209 16.94 2 14 2Z" fill="white"/>
</svg>
