<svg width="20" height="20" viewBox="0 0 20 20" fill="none" xmlns="http://www.w3.org/2000/svg">
<path d="M10 1C5.03 1 1 5.03 1 10C1 14.97 5.03 19 10 19C14.97 19 19 14.97 19 10C19 5.03 14.97 1 10 1ZM3.69 13H4.5C5.33 13 6 12.33 6 11.5C6 10.67 5.33 10 4.5 10H3C3 9.3 3.11 8.63 3.29 8H7C7.55 8 8 7.55 8 7V6H10C11.1 6 12 5.1 12 4V3.29C14.25 3.96 16.03 5.74 16.71 8H12.86C11.84 8 11.01 8.83 11.01 9.85V11.29H9.86C8.84 11.29 8.01 12.12 8.01 13.14C8.01 14.16 8.84 14.99 9.86 14.99H14.9C13.64 16.23 11.91 16.99 10.01 16.99C7.22 16.99 4.82 15.35 3.7 12.99L3.69 13Z" fill="#100101"/>
</svg>
