<svg width="20" height="20" viewBox="0 0 20 20" fill="none" xmlns="http://www.w3.org/2000/svg">
<path d="M6 10.5C6.55228 10.5 7 10.0523 7 9.5C7 8.94771 6.55228 8.5 6 8.5C5.44772 8.5 5 8.94771 5 9.5C5 10.0523 5.44772 10.5 6 10.5Z" fill="#100101"/>
<path d="M14 10.5C14.5523 10.5 15 10.0523 15 9.5C15 8.94771 14.5523 8.5 14 8.5C13.4477 8.5 13 8.94771 13 9.5C13 10.0523 13.4477 10.5 14 10.5Z" fill="#100101"/>
<path d="M8 7.5C8.55228 7.5 9 7.05228 9 6.5C9 5.94772 8.55228 5.5 8 5.5C7.44772 5.5 7 5.94772 7 6.5C7 7.05228 7.44772 7.5 8 7.5Z" fill="#100101"/>
<path d="M12 7.5C12.5523 7.5 13 7.05228 13 6.5C13 5.94772 12.5523 5.5 12 5.5C11.4477 5.5 11 5.94772 11 6.5C11 7.05228 11.4477 7.5 12 7.5Z" fill="#100101"/>
<path d="M10 0.5C5 0.5 1 4.59 1 9.5C1 14.41 4.5 19.5 10 19.5C11.1 19.5 12 18.6 12 17.5V15.5C17 15.5 19 13.5 19 9.5C19 4.44 15 0.5 10 0.5ZM12 13.5H10V17.5C6.56 17.5 3 14.51 3 9.5C3 5.64 6.14 2.5 10 2.5C13.86 2.5 17 5.57 17 9.5C17 12.09 16.2 13.5 12 13.5Z" fill="#100101"/>
</svg>
