<svg width="20" height="20" viewBox="0 0 20 20" fill="none" xmlns="http://www.w3.org/2000/svg">
<path d="M8.50002 5.49992H10.5V8.49992H13.5V10.4999H10.5V13.4999H8.50002V10.4999H5.50002V8.49992H8.50002V5.49992Z" fill="#100101"/>
<path fill-rule="evenodd" clip-rule="evenodd" d="M16.17 14.76L19 17.59L17.59 19L14.76 16.17C13.31 17.31 11.49 18 9.5 18C4.81 18 1 14.19 1 9.5C1 4.81 4.81 1 9.5 1C14.19 1 18 4.81 18 9.5C18 11.49 17.31 13.31 16.17 14.76ZM3 9.5C3 13.08 5.92 16 9.5 16C13.08 16 16 13.08 16 9.5C16 5.92 13.08 3 9.5 3C5.92 3 3 5.92 3 9.5Z" fill="#100101"/>
</svg>
