<svg width="20" height="20" viewBox="0 0 20 20" fill="none" xmlns="http://www.w3.org/2000/svg">
<path d="M17.0001 11.0003V17.0003H11.0001V11.0003H17.0001ZM17.0001 9.00029H11.0001C9.90008 9.00029 9.00008 9.90028 9.00008 11.0003V17.0003C9.00008 18.1003 9.90008 19.0003 11.0001 19.0003H17.0001C18.1001 19.0003 19.0001 18.1003 19.0001 17.0003V11.0003C19.0001 9.90028 18.1001 9.00029 17.0001 9.00029Z" fill="white"/>
<path d="M6.99994 17H4.99994V19H6.99994V17Z" fill="white"/>
<path d="M3 17H1V19H3V17Z" fill="white"/>
<path d="M3 13.0001H1V15.0001H3V13.0001Z" fill="white"/>
<path d="M3 9.00029H1V11.0003H3V9.00029Z" fill="white"/>
<path d="M3 5.00024H1V7.00024H3V5.00024Z" fill="white"/>
<path d="M3 1H1V3H3V1Z" fill="white"/>
<path d="M6.99994 1H4.99994V3H6.99994V1Z" fill="white"/>
<path d="M11.0001 1H9.00008V3H11.0001V1Z" fill="white"/>
<path d="M14.9999 1H12.9999V3H14.9999V1Z" fill="white"/>
<path d="M19.0001 1H17.0001V3H19.0001V1Z" fill="white"/>
<path d="M19.0001 5.00024H17.0001V7.00024H19.0001V5.00024Z" fill="white"/>
</svg>
