<svg width="20" height="20" viewBox="0 0 20 20" fill="none" xmlns="http://www.w3.org/2000/svg">
<path d="M2.85999 9.92762L4.28999 11.3376C7.43999 8.21762 12.57 8.21762 15.72 11.3376L17.15 9.92762C13.21 6.01762 6.80999 6.01762 2.85999 9.92762Z" fill="white"/>
<path d="M0 7.09744L1.43 8.50744C6.16 3.82744 13.85 3.82744 18.57 8.50744L20 7.09744C14.48 1.63744 5.52 1.63744 0 7.09744Z" fill="white"/>
<path d="M5.70996 12.7574L7.13996 14.1674C8.71996 12.6074 11.28 12.6074 12.85 14.1674L14.28 12.7574C11.91 10.4174 8.07996 10.4174 5.70996 12.7574Z" fill="white"/>
<path d="M8.56995 15.5874L9.99995 16.9974L11.4299 15.5874C10.6399 14.8074 9.35995 14.8074 8.56995 15.5874Z" fill="white"/>
</svg>
