<?xml version="1.0" encoding="UTF-8"?>
<svg id="Layer_1" xmlns="http://www.w3.org/2000/svg" version="1.1" viewBox="0 0 335 40">
  <!-- Generator: Adobe Illustrator 29.0.1, SVG Export Plug-In . SVG Version: 2.1.0 Build 192)  -->
  <defs>
    <style>
      .st0 {
        fill: #fff;
      }
    </style>
  </defs>
  <path class="st0" d="M0,0h13c6.46,0,11.32,2.74,11.32,9.29s-5.08,9.29-11.32,9.29h-7.21v12.39H0V0ZM18.35,9.29c0-2.7-1.55-4.38-5.35-4.38h-7.21v8.76h7.21c3.71,0,5.35-1.68,5.35-4.38Z"/>
  <path class="st0" d="M24.18,20.27c0-7.08,4.6-11.59,11.05-11.59s11.1,4.51,11.1,11.59-4.6,11.5-11.1,11.5-11.05-4.34-11.05-11.5ZM40.85,20.27c0-4.69-2.3-7.3-5.62-7.3s-5.57,2.61-5.57,7.3,2.21,7.26,5.57,7.26,5.62-2.65,5.62-7.26Z"/>
  <path class="st0" d="M46.24,9.38h5.57l3.94,14.65c.18.8.35,1.68.49,2.7.22-1.02.4-1.9.62-2.7l3.54-14.65h7.16l3.58,14.65c.18.84.4,1.68.53,2.79.22-1.11.4-1.95.62-2.79l3.89-14.65h5.17l-6.37,21.59h-6.68l-3.76-14.73c-.13-.66-.35-1.59-.49-2.7-.13,1.11-.35,1.99-.57,2.7l-3.71,14.73h-6.94l-6.59-21.59Z"/>
  <path class="st0" d="M81.34,20.13c0-6.81,4.55-11.46,10.83-11.46,6.59,0,10.39,4.6,10.39,11.64v1.2h-15.7c.04,3.41,2.21,6.02,5.48,6.02,2.34,0,4.24-1.33,4.6-3.58h5.48c-.44,4.42-4.24,7.83-10.08,7.83-6.46,0-11.01-4.16-11.01-11.64ZM92.13,12.7c-2.92,0-5,2.08-5.31,4.91h10.21c-.09-2.92-1.99-4.91-4.91-4.91Z"/>
  <path class="st0" d="M105.21,9.38h5.39v1.64c0,.8-.04,1.46-.18,2.26,1.15-2.43,3.09-4.6,6.32-4.6.44,0,.8.04,1.15.13v5.22c-.35-.09-.84-.18-1.55-.18-3.32,0-5.75,1.68-5.75,6.42v10.71h-5.39V9.38Z"/>
  <path class="st0" d="M117.72,20.13c0-6.81,4.55-11.46,10.83-11.46,6.59,0,10.39,4.6,10.39,11.64v1.2h-15.7c.04,3.41,2.21,6.02,5.48,6.02,2.34,0,4.25-1.33,4.6-3.58h5.48c-.44,4.42-4.25,7.83-10.08,7.83-6.46,0-11.01-4.16-11.01-11.64ZM128.51,12.7c-2.92,0-5,2.08-5.31,4.91h10.21c-.09-2.92-1.99-4.91-4.91-4.91Z"/>
  <path class="st0" d="M140.35,20.27c0-7.74,4.91-11.59,9.95-11.59,3.36,0,5.44,1.73,6.68,3.8-.18-.8-.18-1.46-.18-2.12V0h5.39v30.97h-5.39v-.88c0-.75,0-1.33.18-2.08-.84,1.59-2.79,3.76-6.76,3.76-5.7,0-9.86-3.89-9.86-11.5ZM157.11,20.22c0-4.42-2.39-7.26-5.62-7.26s-5.66,2.96-5.66,7.26,2.43,7.3,5.66,7.3,5.62-2.96,5.62-7.3Z"/>
  <path class="st0" d="M178.99,28.01c.13.84.18,1.37.18,2.08v.88h-5.39V0h5.39v10.35c0,.75-.09,1.42-.18,2.12,1.37-2.26,3.54-3.8,6.85-3.8,5.22,0,9.77,4.38,9.77,11.59s-4.11,11.5-9.68,11.5c-3.63,0-5.79-1.64-6.94-3.76ZM190.13,20.27c0-4.34-2.34-7.3-5.66-7.3s-5.61,2.96-5.61,7.3,2.34,7.26,5.61,7.26,5.66-2.96,5.66-7.26Z"/>
  <path class="st0" d="M203.57,30.8l-8.45-21.42h6.06l4.6,13.94c.27.75.49,1.55.71,2.57.18-1.02.44-1.81.66-2.57l4.38-13.94h5.66l-11.36,30.62h-5.75l3.49-9.2Z"/>
  <path class="st0" d="M226.16,0h5.79v12.66h14.28V0h5.79v30.97h-5.79v-13.41h-14.28v13.41h-5.79V0Z"/>
  <path class="st0" d="M254.76,20.27c0-7.08,4.6-11.59,11.05-11.59s11.1,4.51,11.1,11.59-4.6,11.5-11.1,11.5-11.05-4.34-11.05-11.5ZM271.43,20.27c0-4.69-2.3-7.3-5.62-7.3s-5.57,2.61-5.57,7.3,2.21,7.26,5.57,7.26,5.62-2.65,5.62-7.26Z"/>
  <path class="st0" d="M276.47,9.38h5.79l4.73,14.25c.35.93.53,1.68.8,2.79.22-1.11.44-1.86.75-2.79l4.69-14.25h5.57l-7.91,21.59h-6.28l-8.14-21.59Z"/>
  <path class="st0" d="M298.44,20.13c0-6.81,4.55-11.46,10.83-11.46,6.59,0,10.39,4.6,10.39,11.64v1.2h-15.7c.04,3.41,2.21,6.02,5.48,6.02,2.34,0,4.24-1.33,4.6-3.58h5.48c-.44,4.42-4.24,7.83-10.08,7.83-6.46,0-11.01-4.16-11.01-11.64ZM309.23,12.7c-2.92,0-5,2.08-5.31,4.91h10.21c-.09-2.92-1.99-4.91-4.91-4.91Z"/>
  <path class="st0" d="M322.31,9.38h5.39v1.64c0,.8-.04,1.46-.18,2.26,1.15-2.43,3.09-4.6,6.32-4.6.44,0,.8.04,1.15.13v5.22c-.35-.09-.84-.18-1.55-.18-3.32,0-5.75,1.68-5.75,6.42v10.71h-5.39V9.38Z"/>
</svg>