<svg width="20" height="20" viewBox="0 0 20 20" fill="none" xmlns="http://www.w3.org/2000/svg">
<path fill-rule="evenodd" clip-rule="evenodd" d="M11 4.1V2H9V4.1C6.2 4.6 4 7 4 10V12H16V10C16 7 13.8 4.6 11 4.1ZM6 10C6 7.8 7.8 6 10 6C12.2 6 14 7.8 14 10H6Z" fill="#100101"/>
<path d="M10 14.9999C10.5523 14.9999 11 14.5522 11 13.9999C11 13.4476 10.5523 12.9999 10 12.9999C9.44774 12.9999 9.00003 13.4476 9.00003 13.9999C9.00003 14.5522 9.44774 14.9999 10 14.9999Z" fill="#100101"/>
<path d="M15 13.9999C15 14.5522 14.5522 14.9999 14 14.9999C13.4477 14.9999 13 14.5522 13 13.9999C13 13.4476 13.4477 12.9999 14 12.9999C14.5522 12.9999 15 13.4476 15 13.9999Z" fill="#100101"/>
<path d="M6.00009 14.9999C6.55237 14.9999 7.00009 14.5522 7.00009 13.9999C7.00009 13.4476 6.55237 12.9999 6.00009 12.9999C5.4478 12.9999 5.00009 13.4476 5.00009 13.9999C5.00009 14.5522 5.4478 14.9999 6.00009 14.9999Z" fill="#100101"/>
<path d="M11 16.9999C11 17.5522 10.5523 17.9999 10 17.9999C9.44774 17.9999 9.00003 17.5522 9.00003 16.9999C9.00003 16.4476 9.44774 15.9999 10 15.9999C10.5523 15.9999 11 16.4476 11 16.9999Z" fill="#100101"/>
<path d="M14 17.9999C14.5522 17.9999 15 17.5522 15 16.9999C15 16.4476 14.5522 15.9999 14 15.9999C13.4477 15.9999 13 16.4476 13 16.9999C13 17.5522 13.4477 17.9999 14 17.9999Z" fill="#100101"/>
<path d="M7.00009 16.9999C7.00009 17.5522 6.55237 17.9999 6.00009 17.9999C5.4478 17.9999 5.00009 17.5522 5.00009 16.9999C5.00009 16.4476 5.4478 15.9999 6.00009 15.9999C6.55237 15.9999 7.00009 16.4476 7.00009 16.9999Z" fill="#100101"/>
</svg>
