<svg width="20" height="20" viewBox="0 0 20 20" fill="none" xmlns="http://www.w3.org/2000/svg">
<path d="M6 8.00006H8V10.0001H6V8.00006Z" fill="#100101"/>
<path d="M11.0001 8.00006H9.00008V10.0001H11.0001V8.00006Z" fill="#100101"/>
<path d="M12 8.00006H14V10.0001H12V8.00006Z" fill="#100101"/>
<path fill-rule="evenodd" clip-rule="evenodd" d="M10 17.0002L6 19.0002V15.9213C3.61334 14.5328 2 11.9458 2 9.00024C2 4.60024 5.6 1.00024 10 1.00024C14.4 1.00024 18 4.60024 18 9.00024C18 13.4002 14.4 17.0002 10 17.0002ZM10 3.00024C13.3 3.00024 16 5.70024 16 9.00024C16 12.3002 13.3 15.0002 10 15.0002L9.97288 15.0002C6.68522 14.9854 4 12.2912 4 9.00024C4 5.70024 6.7 3.00024 10 3.00024Z" fill="#100101"/>
</svg>
