<svg width="20" height="20" viewBox="0 0 20 20" fill="none" xmlns="http://www.w3.org/2000/svg">
<path fill-rule="evenodd" clip-rule="evenodd" d="M10.7 5.10024H10C10 5.00024 9.3 5.10024 9.3 5.10024C7.4 5.40024 6 7.10024 6 9.00024V13.0002H14V9.00024C14 7.00024 12.6 5.40024 10.7 5.10024ZM9 1.00024H11V3.10024C13.8 3.60024 16 6.00024 16 9.00024V12.0002L18 13.0002V15.0002H2V13.0002L4 12.0002V9.00024C4 6.00024 6.2 3.60024 9 3.10024V1.00024ZM8 17.0002H12C12 18.1002 11.1 19.0002 10 19.0002C8.9 19.0002 8 18.1002 8 17.0002Z" fill="white"/>
</svg>
