<svg width="20" height="20" viewBox="0 0 20 20" fill="none" xmlns="http://www.w3.org/2000/svg">
<path d="M16.3664 3.63853C14.6057 1.87951 12.3047 1 10.0038 1C7.70279 1 5.39183 1.87951 3.6411 3.63853C0.119633 7.15658 0.119633 12.8434 3.6411 16.3615C5.40183 18.1205 7.70279 19 10.0038 19C12.3047 19 14.6157 18.1205 16.3664 16.3615C19.8779 12.8534 19.8779 7.15658 16.3664 3.63853ZM14.9558 5.04775C16.2764 6.36702 17.0067 8.12604 17.0067 9.995C17.0067 11.5242 16.5065 12.9733 15.6061 14.1827L5.81201 4.39811C7.01251 3.49861 8.47311 2.99889 10.0038 2.99889C11.8745 2.99889 13.6353 3.72848 14.9558 5.04775ZM5.05169 14.9423C3.73114 13.623 3.00083 11.864 3.00083 9.995C3.00083 8.46585 3.50104 7.01666 4.40142 5.80733L14.1955 15.5919C12.995 16.4914 11.5344 16.9911 10.0038 16.9911C8.13297 16.9911 6.37224 16.2615 5.05169 14.9423Z" fill="white"/>
</svg>
