<svg width="20" height="20" viewBox="0 0 20 20" fill="none" xmlns="http://www.w3.org/2000/svg">
<path d="M8.99989 14.9999V13.9999C7.89989 13.9999 6.99989 13.0999 6.99989 11.9999V10.9999H8.99989V11.9999H10.9999V9.99988H8.99989C7.89989 9.99988 6.99989 9.09988 6.99989 7.99988V5.99988C6.99989 4.89988 7.89989 3.99988 8.99989 3.99988V2.99988H10.9999V3.99988C12.0999 3.99988 12.9999 4.89988 12.9999 5.99988V6.99988H10.9999V5.99988H8.99989V7.99988H10.9999C12.0999 7.99988 12.9999 8.89988 12.9999 9.99988V11.9999C12.9999 13.0999 12.0999 13.9999 10.9999 13.9999V14.9999H8.99989Z" fill="white"/>
<path fill-rule="evenodd" clip-rule="evenodd" d="M2.5 20V0H17.5V20L15 18L12.5 20L10 18L7.5 20L5 18L2.5 20ZM15.5 16V2H4.5V16H15.5Z" fill="white"/>
</svg>
