<svg width="20" height="20" viewBox="0 0 20 20" fill="none" xmlns="http://www.w3.org/2000/svg">
<path d="M11 1H9V3H11V1Z" fill="#100101"/>
<path d="M11 17H9V19H11V17Z" fill="#100101"/>
<path d="M10.09 9.02C8.37 8.88 8 8.73 8 7.5C8 7.13 8 6 10 6C11.33 6 12 6.68 12 8.02H14C14 5.05 11.85 4 10 4C7.53 4 6 5.34 6 7.5C6 10.68 8.46 10.89 9.93 11.01C11.64 11.15 12 11.3 12 12.5C12 12.95 12 14 10 14C8.21 14 8 12.87 8 12.02H6C6 14.96 8.07 16 10 16C12.47 16 14 14.66 14 12.5C14 9.34 11.55 9.14 10.09 9.02Z" fill="#100101"/>
</svg>
