<svg width="20" height="20" viewBox="0 0 20 20" fill="none" xmlns="http://www.w3.org/2000/svg">
<g clip-path="url(#clip0_9095_6231)">
<path d="M13.0001 2.99978H7.00013V5.99978H13.0001V2.99978Z" fill="#100101"/>
<path d="M10.0001 16.9999C10.5523 16.9999 11.0001 16.5522 11.0001 15.9999C11.0001 15.4476 10.5523 14.9999 10.0001 14.9999C9.44777 14.9999 9.00005 15.4476 9.00005 15.9999C9.00005 16.5522 9.44777 16.9999 10.0001 16.9999Z" fill="#100101"/>
<path fill-rule="evenodd" clip-rule="evenodd" d="M7 0H13C14.66 0 16 1.34 16 3V17C16 18.66 14.66 20 13 20H7C5.34 20 4 18.66 4 17V3C4 1.34 5.34 0 7 0ZM14 3C14 2.45 13.55 2 13 2H7C6.45 2 6 2.45 6 3V17C6 17.55 6.45 18 7 18H13C13.55 18 14 17.55 14 17V3Z" fill="#100101"/>
</g>
<defs>
<clipPath id="clip0_9095_6231">
<rect width="20" height="20" fill="white"/>
</clipPath>
</defs>
</svg>
