<svg width="440" height="120" viewBox="0 0 440 120" fill="none" xmlns="http://www.w3.org/2000/svg">
<path d="M331.571 22.8555C300.142 22.8555 285.856 39.9983 285.856 71.4269C285.856 102.855 300.142 119.998 331.571 119.998C361.805 119.998 371.753 104.165 375.41 89.1412H353.981C352.333 99.5817 345.12 99.9983 331.571 99.9983C315.098 99.9983 308.714 98.284 308.714 82.8555V79.4269H376.999C376.999 76.8555 377.285 74.284 377.285 71.4269C377.285 39.9983 362.999 22.8555 331.571 22.8555ZM354.428 62.284H308.714V59.9983C308.714 43.7126 314.999 42.8555 331.571 42.8555C348.142 42.8555 354.428 44.5698 354.428 59.9983V62.284Z" fill="white"/>
<path d="M260 25.7129L242.858 99.9986H237.143L220 25.7129H194.286L220 117.141H260L285.715 25.7129H260Z" fill="white"/>
<path d="M148.572 22.8555C117.143 22.8555 102.857 39.9983 102.857 71.4269C102.857 102.855 117.143 119.998 148.572 119.998C180 119.998 194.286 102.855 194.286 71.4269C194.286 39.9983 180 22.8555 148.572 22.8555ZM171.429 82.8555C171.429 99.1412 165.143 99.9983 148.572 99.9983C132 99.9983 125.715 98.284 125.715 82.8555V59.9983C125.715 43.7126 132 42.8555 148.572 42.8555C165.143 42.8555 171.429 44.5698 171.429 59.9983V82.8555Z" fill="white"/>
<path d="M434.285 22.8555C419.428 22.8555 413.714 33.1412 411.428 42.8555H408.571V25.7126H385.714V117.141H408.571V59.9983C408.571 43.7126 414.857 42.8555 431.428 42.8555H440V22.8555H434.285Z" fill="white"/>
<path d="M71.4286 48H22.8571V0H0V117.143H22.8571V69.1429H71.4286V117.143H94.2857V0H71.4286V48Z" fill="white"/>
</svg>
