<svg width="20" height="20" viewBox="0 0 20 20" fill="none" xmlns="http://www.w3.org/2000/svg">
<path d="M16.3603 3.63487C14.6003 1.87487 12.3003 0.994873 10.0003 0.994873C7.70031 0.994873 5.39031 1.87487 3.64031 3.63487C0.130312 7.14487 0.130312 12.8449 3.64031 16.3649C5.40031 18.1249 7.70031 19.0049 10.0003 19.0049C12.3003 19.0049 14.6103 18.1249 16.3603 16.3649C19.8703 12.8549 19.8703 7.15487 16.3603 3.63487ZM14.9503 14.9449C13.6303 16.2649 11.8703 16.9949 10.0003 16.9949C8.13031 16.9949 6.37032 16.2649 5.05032 14.9449C3.73032 13.6249 3.00031 11.8649 3.00031 9.99487C3.00031 8.12487 3.73032 6.36487 5.05032 5.04487C6.37032 3.72487 8.13031 2.99487 10.0003 2.99487C11.8703 2.99487 13.6303 3.72487 14.9503 5.04487C16.2703 6.36487 17.0003 8.12487 17.0003 9.99487C17.0003 11.8649 16.2703 13.6249 14.9503 14.9449Z" fill="white"/>
<path d="M14.2403 7.16487L12.8303 5.75487L10.0003 8.58487L7.17031 5.75487L5.76031 7.16487L8.59031 9.99487L5.76031 12.8249L7.17031 14.2349L10.0003 11.4049L12.8303 14.2349L14.2403 12.8249L11.4103 9.99487L14.2403 7.16487Z" fill="white"/>
</svg>
