<svg width="20" height="20" viewBox="0 0 20 20" fill="none" xmlns="http://www.w3.org/2000/svg">
<path d="M11.0001 15.0001H9.00008V9.00008H11.0001V15.0001Z" fill="#100101"/>
<path d="M11.2 6.19984C11.2 6.86258 10.9 7.39984 9.99999 7.39984C9.09998 7.39984 8.79999 6.86258 8.79999 6.19984C8.79999 5.5371 9.09998 4.99984 9.99999 4.99984C10.9 4.99984 11.2 5.5371 11.2 6.19984Z" fill="#100101"/>
<path fill-rule="evenodd" clip-rule="evenodd" d="M10 1C5 1 1 5 1 10C1 15 5 19 10 19C15 19 19 15 19 10C19 5 15 1 10 1ZM10 3C13.9 3 17 6.1 17 10C17 13.9 13.9 17 10 17C6.1 17 3 13.9 3 10C3 6.1 6.1 3 10 3Z" fill="#100101"/>
</svg>
