<svg width="20" height="20" viewBox="0 0 20 20" fill="none" xmlns="http://www.w3.org/2000/svg">
<g clip-path="url(#clip0_9095_7366)">
<path d="M0.05 0H14V2L2.05 2.01L2 14H0L0.05 0Z" fill="white"/>
<path d="M9.5 11C10.3284 11 11 10.3284 11 9.5C11 8.67157 10.3284 8 9.5 8C8.67157 8 8 8.67157 8 9.5C8 10.3284 8.67157 11 9.5 11Z" fill="white"/>
<path fill-rule="evenodd" clip-rule="evenodd" d="M4 4V20H20V4H4ZM18 18L14 12L11 17L9 14L6 18V6H18V18Z" fill="white"/>
</g>
<defs>
<clipPath id="clip0_9095_7366">
<rect width="20" height="20" fill="white"/>
</clipPath>
</defs>
</svg>
