<svg width="20" height="20" viewBox="0 0 20 20" fill="none" xmlns="http://www.w3.org/2000/svg">
<path d="M15.5 1.49976V4.49976H18.5V6.49976H15.5V9.49976H13.5V6.49976H10.5V4.49976H13.5V1.49976H15.5Z" fill="#100101"/>
<path d="M13.5 11.5V16.5H3.5V8.50004H5.74L6.29 7.39004L6.74 6.50004H8.5V4.50004H5.5L4.5 6.50004H1.5V18.5H15.5V11.5H13.5Z" fill="#100101"/>
<path d="M8.5 14.2498C9.60457 14.2498 10.5 13.3543 10.5 12.2498C10.5 11.1452 9.60457 10.2498 8.5 10.2498C7.39543 10.2498 6.5 11.1452 6.5 12.2498C6.5 13.3543 7.39543 14.2498 8.5 14.2498Z" fill="#100101"/>
</svg>
